<?xml version="1.0" encoding="UTF-8" standalone="no"?>
<svg
   xmlns:dc="http://purl.org/dc/elements/1.1/"
   xmlns:cc="http://creativecommons.org/ns#"
   xmlns:rdf="http://www.w3.org/1999/02/22-rdf-syntax-ns#"
   xmlns:svg="http://www.w3.org/2000/svg"
   xmlns="http://www.w3.org/2000/svg"
   xmlns:sodipodi="http://sodipodi.sourceforge.net/DTD/sodipodi-0.dtd"
   xmlns:inkscape="http://www.inkscape.org/namespaces/inkscape"
   width="194pt"
   height="199pt"
   viewBox="0 0 194 199"
   version="1.1"
   id="svg2"
   inkscape:version="0.48.5 r10040"
   sodipodi:docname="Voc4Fun-icon.svg"
   inkscape:export-filename="D:\xampp\htdocs\voc4fun\voc4fun-client\www\img\Voc4Fun-icon256.png"
   inkscape:export-xdpi="90"
   inkscape:export-ydpi="90">
  <metadata
     id="metadata36">
    <rdf:RDF>
      <cc:Work
         rdf:about="">
        <dc:format>image/svg+xml</dc:format>
        <dc:type
           rdf:resource="http://purl.org/dc/dcmitype/StillImage" />
        <dc:title></dc:title>
      </cc:Work>
    </rdf:RDF>
  </metadata>
  <defs
     id="defs34" />
  <sodipodi:namedview
     pagecolor="#ffffff"
     bordercolor="#666666"
     borderopacity="1"
     objecttolerance="10"
     gridtolerance="10"
     guidetolerance="10"
     inkscape:pageopacity="0"
     inkscape:pageshadow="2"
     inkscape:window-width="1440"
     inkscape:window-height="878"
     id="namedview32"
     showgrid="false"
     inkscape:zoom="1.8974874"
     inkscape:cx="240.15159"
     inkscape:cy="159.54614"
     inkscape:window-x="-31756"
     inkscape:window-y="-31100"
     inkscape:window-maximized="0"
     inkscape:current-layer="svg2" />
  <g
     id="g3013"
     transform="matrix(1.0890235,0,0,1.0824463,-0.29098245,-15.896169)">
    <path
       id="path6"
       d="m 88.32,3.84 c 14.65,-0.83 29.84,0.37 43.41,6.39 9.81,3.79 18.8,9.44 26.81,16.22 7.74,5.66 13.16,13.72 18.53,21.5 11.98,19.16 16.41,42.71 13.29,65.01 -1.42,10.58 -6.44,20.11 -10.48,29.84 -2.57,5.73 -7.07,10.26 -10.45,15.49 -3.07,4.86 -7.35,8.76 -11.72,12.42 -8.28,7.28 -18.05,12.74 -28.34,16.62 -7.64,2.86 -15.81,3.69 -23.81,4.97 -6.5,0.89 -13.1,0.57 -19.53,-0.67 -19.1,-2.06 -37.7,-9.77 -52.19,-22.47 C 24.48,161.96 18.12,151.78 12.32,141.69 4.1,125.18 1.87,106.18 4.06,88.01 4.84,82.87 3.55,77.54 5.2,72.52 12.14,49.44 27.43,28.56 48.44,16.45 60.52,9.18 74.46,5.69 88.32,3.84 z"
       inkscape:connector-curvature="0"
       style="fill:#00b0f0" />
    <path
       id="path8"
       d="m 75.22,12.15 c 11.87,-2.81 24.26,-3.25 36.29,-1.26 -0.09,2.08 -0.2,4.16 -0.31,6.24 19.4,3.72 37.69,14.14 49.83,29.85 6.88,8.54 11.9,18.51 15,29.01 2.08,-0.3 4.16,-0.64 6.25,-0.93 1.66,7.21 2.73,14.55 3.04,21.94 0.12,4.86 -0.81,9.67 -0.95,14.53 -2.19,-0.14 -4.38,-0.29 -6.57,-0.41 -2.53,18.11 -11.79,35.11 -25.24,47.45 -10.63,9.97 -24.01,16.78 -38.17,20.1 0.22,2.08 0.44,4.16 0.69,6.24 -12.05,2.34 -24.51,2.4 -36.56,0.04 0.1,-2.06 0.24,-4.12 0.38,-6.17 -18.32,-4.48 -35.43,-14.64 -46.98,-29.7 -7.5,-9.23 -12.24,-20.29 -15.6,-31.61 -1.92,0.36 -3.84,0.73 -5.76,1.09 -2.74,-8.95 -2.4,-18.39 -2.15,-27.62 0.06,-3.13 0.66,-6.2 1.26,-9.26 2.08,0.09 4.15,0.18 6.22,0.25 3.69,-17.49 12.84,-33.91 26.47,-45.58 8.85,-7.97 19.58,-13.7 30.98,-17.08 3.46,-0.6 1.61,-4.74 1.88,-7.12 z"
       inkscape:connector-curvature="0"
       style="fill:#dbeef4" />
    <path
       id="path10"
       d="m 37.2,45.88 c 1.16,-0.76 2.17,-2.04 3.73,-1.76 3.94,-0.01 7.93,-0.28 11.83,0.39 2.32,0.27 2.95,2.92 3.78,4.7 6.05,18.48 11.43,37.18 17.78,55.56 1.16,-2.17 2.23,-4.41 2.96,-6.76 C 81.86,82.42 86.96,67 91.63,51.44 92.6,49.09 93.11,46 95.49,44.67 c 4.67,-1.11 9.53,-0.41 14.25,-0.12 -0.14,2.45 -0.29,4.92 -1.01,7.29 -7.4,22.34 -15.27,44.54 -22.31,67 -0.17,-0.33 -0.51,-0.98 -0.68,-1.31 -7.43,4.47 -16.52,3.45 -24.22,0.29 0.13,0.55 0.39,1.65 0.53,2.2 C 57.29,107.8 53.59,95.21 49.29,82.83 45.31,70.5 40.57,58.41 37.2,45.88 z"
       inkscape:connector-curvature="0"
       style="fill:#63a5f2" />
    <path
       id="path12"
       d="m 40.23,45.27 c 0.32,-0.02 0.95,-0.06 1.27,-0.08 4.15,9.5 6.68,19.6 10.03,29.39 3.24,9.45 6.66,18.83 9.53,28.41 1.33,3.71 2.26,7.88 5.17,10.73 3.75,2.25 8.53,1.91 12.68,1.19 3.78,-0.6 4.96,-4.74 6.19,-7.78 4.92,-15.03 9.94,-30.03 15,-45.01 1.96,-5.63 3.77,-11.31 5.23,-17.09 0.74,0.03 2.23,0.08 2.97,0.11 -1.13,6.37 -3.57,12.39 -5.59,18.51 -5.04,15.27 -10.3,30.47 -15.26,45.77 -1.15,3.17 -2.39,7.07 -5.99,8.16 -4.87,1.43 -10.22,1.41 -15.13,0.19 -3.39,-0.85 -4.76,-4.38 -5.83,-7.33 C 54.14,91.17 47.72,71.91 41.19,52.69 c -0.56,-2.4 -1.8,-4.96 -0.96,-7.42 z"
       inkscape:connector-curvature="0"
       style="fill:#bfdafa" />
    <path
       id="path14"
       d="m 41.5,45.19 c 4.08,-0.23 8.17,-0.37 12.24,0.11 6.99,20.67 13.25,41.58 20.03,62.32 0.38,0 1.15,0 1.53,0 5.53,-16.64 10.62,-33.41 15.86,-50.14 1.33,-4.01 2.05,-8.32 4.32,-11.94 3.19,-0.96 6.57,-0.59 9.85,-0.51 -1.46,5.78 -3.27,11.46 -5.23,17.09 -5.06,14.98 -10.08,29.98 -15,45.01 -1.23,3.04 -2.41,7.18 -6.19,7.78 -4.15,0.72 -8.93,1.06 -12.68,-1.19 -2.91,-2.85 -3.84,-7.02 -5.17,-10.73 C 58.19,93.41 54.77,84.03 51.53,74.58 48.18,64.79 45.65,54.69 41.5,45.19 z"
       inkscape:connector-curvature="0"
       style="fill:#f7f9fe" />
    <path
       id="path16"
       d="m 102.4,79.34 c 1.81,-2.21 4.98,-1.93 7.55,-2.09 12.02,0.09 24.06,0.17 36.09,-0.03 2.08,0.03 4.21,-0.05 6.23,0.51 2.28,1.67 1.78,4.98 2.41,7.44 -6.4,3.39 -13.71,3.29 -20.73,2.92 -4.91,-0.38 -9.58,1.58 -13.46,4.44 -1.39,4.75 -0.03,9.79 0.07,14.64 0.33,-4.31 -1.08,-9.22 1.13,-13.12 0.12,7.7 -0.29,15.41 0.15,23.11 9.46,0.76 19.05,-0.68 28.44,0.61 3.38,2.62 2.41,7.61 1.84,11.3 0.15,-1.89 0.22,-3.78 0.31,-5.66 -1.92,1.72 -3.66,4.13 -6.42,4.43 -5.58,0.81 -11.24,-0.2 -16.83,0.51 -3.08,0.31 -5.31,2.68 -7.59,4.52 9.51,0.96 19.06,0.31 28.59,0.5 -9.56,1.25 -19.23,-0.06 -28.83,0.74 0.15,9.04 0.02,18.08 0.2,27.11 -2.62,1.95 -5.29,4.37 -8.74,4.5 -3.99,0.38 -7.71,-1.38 -11.23,-3.02 -0.04,2.24 -0.09,4.47 -0.15,6.71 -1.01,-7.43 -0.57,-14.94 -0.63,-22.41 -0.03,-19.67 0.06,-39.34 -0.06,-59.01 0.16,-2.9 -0.17,-6.19 1.66,-8.65 z"
       inkscape:connector-curvature="0"
       style="fill:#9bc5f7" />
    <path
       id="path18"
       d="m 103.44,80.61 c 0.84,-0.59 1.69,-1.18 2.54,-1.77 0.24,19.72 0.07,39.44 0.11,59.16 0.1,5.82 -0.73,11.76 0.55,17.5 0.94,3.95 8.27,4.56 9,0.24 1.68,-9.59 -1.17,-19.67 2.08,-29.04 1.51,-4.19 6.46,-5.24 10.4,-5.49 6.18,-0.2 12.45,0.06 18.46,-1.65 1.06,-0.24 2.11,-0.48 3.17,-0.71 -0.1,1.86 -0.2,3.72 -0.31,5.58 -9.23,0.68 -18.54,-0.32 -27.72,1.15 -4.27,11.34 -1.25,23.55 -3.01,35.27 -5.09,0.76 -10.27,0.74 -15.35,-0.07 -0.4,-17.59 -0.09,-35.19 -0.19,-52.78 0.11,-9.13 -0.29,-18.27 0.27,-27.39 z"
       inkscape:connector-curvature="0"
       style="fill:#deebfc" />
    <path
       id="path20"
       d="m 105.98,78.84 c 10.33,-0.39 20.68,0.03 31.02,-0.18 3.88,-0.11 7.78,0.16 11.59,0.95 -6.42,1.66 -13.06,1.3 -19.61,1.38 -4.26,0.17 -9.57,1.25 -11.31,5.71 -2.8,7.58 -2.36,16.24 1.11,23.54 1.06,2.69 1.36,5.6 1.74,8.45 8.69,0.38 17.47,-0.8 26.06,0.87 -6.01,1.71 -12.28,1.45 -18.46,1.65 -3.94,0.25 -8.89,1.3 -10.4,5.49 -3.25,9.37 -0.4,19.45 -2.08,29.04 -0.73,4.32 -8.06,3.71 -9,-0.24 -1.28,-5.74 -0.45,-11.68 -0.55,-17.5 -0.04,-19.72 0.13,-39.44 -0.11,-59.16 z"
       inkscape:connector-curvature="0"
       style="fill:#f9faff" />
    <path
       id="path22"
       d="m 148.59,79.61 c 1.21,-0.23 2.43,-0.44 3.65,-0.63 -1.07,1.94 -2.03,4.45 -4.54,4.82 -7.83,1.79 -16.01,-0.56 -23.85,1.2 -3.05,0.83 -4.17,4.26 -4.38,7.08 -0.44,6.04 0.29,12.14 -0.69,18.16 -3.47,-7.3 -3.91,-15.96 -1.11,-23.54 1.74,-4.46 7.05,-5.54 11.31,-5.71 6.55,-0.08 13.19,0.28 19.61,-1.38 z"
       inkscape:connector-curvature="0"
       style="fill:#e1edfc" />
    <path
       id="path24"
       d="m 133.95,88.09 c 7.02,0.37 14.33,0.47 20.73,-2.92 -0.8,2.9 -0.15,7.65 -3.86,8.59 -9.65,0.93 -19.6,-0.27 -29.13,0.29 -2.21,3.9 -0.8,8.81 -1.13,13.12 -0.1,-4.85 -1.46,-9.89 -0.07,-14.64 3.88,-2.86 8.55,-4.82 13.46,-4.44 z"
       inkscape:connector-curvature="0"
       style="fill:#61a4f2" />
    <path
       id="path26"
       d="m 61.52,117.82 c 7.7,3.16 16.79,4.18 24.22,-0.29 0.17,0.33 0.51,0.98 0.68,1.31 -1.04,2.17 -2.01,5.17 -4.83,5.44 -5.21,0.64 -10.58,0.74 -15.77,-0.13 -2.14,-0.26 -3.55,-2.07 -3.77,-4.13 -0.14,-0.55 -0.4,-1.65 -0.53,-2.2 z"
       inkscape:connector-curvature="0"
       style="fill:#5ca1f2" />
    <path
       id="path28"
       d="m 146.01,127.84 c 2.76,-0.3 4.5,-2.71 6.42,-4.43 -0.09,1.88 -0.16,3.77 -0.31,5.66 -0.21,1.45 -0.56,2.88 -0.87,4.31 l -1.07,-0.01 c -9.53,-0.19 -19.08,0.46 -28.59,-0.5 2.28,-1.84 4.51,-4.21 7.59,-4.52 5.59,-0.71 11.25,0.3 16.83,-0.51 z"
       inkscape:connector-curvature="0"
       style="fill:#63a5f2" />
    <path
       id="path30"
       d="m 112.81,165.72 c 3.45,-0.13 6.12,-2.55 8.74,-4.5 -0.5,3.11 0.91,8.12 -3.12,9.23 -5.59,1.22 -11.64,1.09 -17,-1.04 0.06,-2.24 0.11,-4.47 0.15,-6.71 3.52,1.64 7.24,3.4 11.23,3.02 z"
       inkscape:connector-curvature="0"
       style="fill:#5ea3f2" />
  </g>
</svg>
